<svg xmlns="http://www.w3.org/2000/svg" width="20" height="20" viewBox="0 0 20 20">
    <g fill="none" fill-rule="evenodd">
        <path fill="#FFF" d="M.834 0A.833.833 0 0 0 0 .833v18.334c0 .46.373.833.834.833H19.167c.46 0 .833-.373.833-.833V.833A.833.833 0 0 0 19.167 0H.834z"/>
        <path fill="#3B5998" d="M19.167 0H.834A.833.833 0 0 0 0 .833v18.334c0 .46.373.833.834.833h9.791v-7.5h-2.5V9.375h2.5v-2.5c0-2.583 1.636-3.854 3.94-3.854 1.104 0 2.053.082 2.329.118v2.7l-1.598.001c-1.253 0-1.546.596-1.546 1.47v2.065h3.125L16.25 12.5h-2.5l.05 7.5h5.367c.46 0 .833-.373.833-.833V.833A.833.833 0 0 0 19.167 0"/>
    </g>
</svg>
