<svg xmlns="http://www.w3.org/2000/svg" width="35" height="47" viewBox="0 0 35 47">
    <g fill="#3D85C3" fill-rule="nonzero">
        <path d="M18.833.334a.564.564 0 0 0-.563.562v7.505a.564.564 0 0 0 1.124 0V.896a.564.564 0 0 0-.561-.562zM12.125 10.106L6.822 4.803a.571.571 0 0 0-.796 0 .571.571 0 0 0 0 .797l5.312 5.302a.555.555 0 0 0 .393.169.54.54 0 0 0 .394-.169.571.571 0 0 0 0-.796zM34.413 17.198h-7.495a.564.564 0 0 0-.562.562c0 .31.252.562.562.562h7.495c.309 0 .562-.253.562-.562a.564.564 0 0 0-.562-.562zM10.738 17.198H3.243a.564.564 0 0 0-.562.562c0 .31.253.562.562.562h7.495c.31 0 .562-.253.562-.562a.564.564 0 0 0-.562-.562zM30.824 5.347a.571.571 0 0 0-.796 0l-5.303 5.302a.571.571 0 0 0 0 .797.56.56 0 0 0 .403.168.54.54 0 0 0 .394-.168l5.302-5.303a.571.571 0 0 0 0-.796z"/>
        <path d="M30.29 24.43h-7.822v-5.724c0-2.183-.628-3.747-1.865-4.656-1.967-1.443-4.693-.609-4.806-.571a.562.562 0 0 0-.393.534v6.08c0 4.113-4.582 6.577-6.334 7.364v-.103a.924.924 0 0 0-.927-.928h-6.67a.924.924 0 0 0-.928.928v17.435c0 .505.422.927.927.927h6.662a.924.924 0 0 0 .927-.927v-.094a4.53 4.53 0 0 0 3.42 1.555h14.877c3.12 0 5.106-1.63 5.462-4.469l2.005-12.722c0-.028.01-.057.01-.085a4.548 4.548 0 0 0-4.545-4.543zM7.937 44.593H1.669V27.55h6.268v17.042zm23.768-2.98v.02c-.356 2.885-2.558 3.484-4.347 3.484H12.481a3.427 3.427 0 0 1-3.42-3.42V28.675c.609-.243 2.07-.89 3.541-1.976 2.567-1.883 3.916-4.17 3.916-6.615v-5.64c.722-.14 2.286-.327 3.42.506.928.684 1.396 1.95 1.396 3.748v6.286c0 .31.253.562.562.562h8.385c1.874 0 3.4 1.509 3.42 3.382l-1.996 12.686z"/>
    </g>
</svg>
