<svg xmlns="http://www.w3.org/2000/svg" width="20" height="20" viewBox="0 0 20 20">
    <g fill="none" fill-rule="evenodd">
        <path fill="#0077B5" d="M19.167 0H.834A.833.833 0 0 0 0 .833v18.333c0 .46.373.834.834.834h18.333c.46 0 .833-.373.833-.834V.833A.833.833 0 0 0 19.167 0z"/>
        <path fill="#FFF" d="M17.043 17.042h-2.966V12.4c0-1.107-.019-2.531-1.541-2.531-1.543 0-1.78 1.206-1.78 2.451v4.72H7.795V7.498h2.843v1.306h.041c.396-.751 1.363-1.542 2.806-1.542 3.004 0 3.56 1.976 3.56 4.546v5.235zM4.45 6.194a1.72 1.72 0 1 1-.004-3.44 1.72 1.72 0 0 1 .003 3.44zM5.933 17.042h-2.97V7.497h2.97z"/>
    </g>
</svg>
