<svg xmlns="http://www.w3.org/2000/svg" width="140" height="38" viewBox="0 0 140 38">
    <g fill="none" fill-rule="evenodd">
        <path fill="#1F91CC" d="M20.783 15.779s.264 1.454.82 2.907c.557 1.453-.656 2.886-2.127 2.576-1.472-.31-2.93-1.017-3.424-.934-.494.082 3.056-2.788 4.731-4.55"/>
        <path fill="#1F91CC" d="M22.058 10.763c0 5.931-4.937 10.74-11.026 10.74-6.09 0-11.026-4.809-11.026-10.74S4.943.023 11.032.023c6.09 0 11.026 4.809 11.026 10.74"/>
        <path fill="#FFF" d="M16.605 16.303s1.956-4.378 1.041-7.245-3.899-5.173-7.06-4.814c-3.162.359-5.97 1.965-6.406 6.605 0 0 .042 4.544 4.258 6.19 0 0 2.771 1.473 8.167-.736"/>
        <path fill="#72CCF0" d="M16.751 11.577s.464-1.653-1.524-5.941c0 0-3.786-3.319-8.512 0 0 0-4.78 3.287-1.22 9.195 0 0 4.004 1.963 6.337 1.576 0 0 .892-3.106 2.761-3.871 0 0 .955-.514 2.138-.892l.02-.067z"/>
        <path fill="#FFF" d="M13.93 10.85c0 1.586-1.32 2.873-2.95 2.873-1.628 0-2.949-1.287-2.949-2.874 0-1.586 1.32-2.873 2.95-2.873 1.629 0 2.95 1.287 2.95 2.873"/>
        <g fill-rule="nonzero">
            <path fill="#1F91CC" d="M35.52 16.314h-.044a3.114 3.114 0 0 1-1.468 1.237c-.61.25-1.254.375-1.931.375-.5 0-.983-.07-1.446-.21a3.65 3.65 0 0 1-1.225-.629 3.038 3.038 0 0 1-.84-1.038c-.205-.412-.308-.89-.308-1.435 0-.618.114-1.14.342-1.567.228-.427.537-.78.927-1.06s.835-.496 1.336-.65a9.75 9.75 0 0 1 1.556-.343 14.866 14.866 0 0 1 1.611-.133 54.683 54.683 0 0 1 1.49-.022c0-.588-.21-1.056-.629-1.401a2.269 2.269 0 0 0-1.49-.52c-.544 0-1.04.115-1.49.343a4.07 4.07 0 0 0-1.203.938l-1.766-1.81a6.077 6.077 0 0 1 2.163-1.291 7.732 7.732 0 0 1 2.561-.431c.972 0 1.77.121 2.396.364.625.243 1.125.6 1.5 1.071.376.47.637 1.049.784 1.733.148.684.221 1.475.221 2.373v5.453h-3.046v-1.347zm-.816-3.355c-.25 0-.563.01-.938.033a4.754 4.754 0 0 0-1.082.188c-.346.103-.64.257-.883.463-.243.206-.364.493-.364.861 0 .397.169.692.507.883.339.191.692.287 1.06.287.324 0 .636-.044.938-.132.302-.089.57-.214.806-.376.235-.162.423-.368.563-.618.14-.25.21-.544.21-.883v-.706h-.817zm12.561 3.355h-.044a3.114 3.114 0 0 1-1.468 1.237c-.61.25-1.255.375-1.932.375-.5 0-.982-.07-1.446-.21a3.65 3.65 0 0 1-1.225-.629 3.038 3.038 0 0 1-.839-1.038c-.206-.412-.309-.89-.309-1.435 0-.618.114-1.14.342-1.567.228-.427.537-.78.927-1.06s.836-.496 1.336-.65a9.75 9.75 0 0 1 1.556-.343 14.866 14.866 0 0 1 1.612-.133 54.683 54.683 0 0 1 1.49-.022c0-.588-.21-1.056-.629-1.401a2.269 2.269 0 0 0-1.49-.52c-.545 0-1.041.115-1.49.343a4.07 4.07 0 0 0-1.203.938l-1.767-1.81a6.077 6.077 0 0 1 2.164-1.291 7.732 7.732 0 0 1 2.56-.431c.972 0 1.77.121 2.396.364.626.243 1.126.6 1.501 1.071.376.47.637 1.049.784 1.733.147.684.22 1.475.22 2.373v5.453h-3.046v-1.347zm-.817-3.355c-.25 0-.563.01-.938.033a4.754 4.754 0 0 0-1.082.188c-.345.103-.64.257-.883.463-.243.206-.364.493-.364.861 0 .397.17.692.508.883.338.191.692.287 1.06.287.323 0 .636-.044.938-.132.301-.089.57-.214.806-.376.235-.162.423-.368.562-.618.14-.25.21-.544.21-.883v-.706h-.817zm11.9-2.87c-.486-.604-1.126-.905-1.921-.905-.28 0-.552.066-.817.198-.265.133-.397.361-.397.685 0 .265.136.46.408.585.272.125.618.235 1.038.33l1.346.31c.479.11.927.283 1.347.519.42.235.765.555 1.037.96.273.405.409.946.409 1.623 0 .691-.151 1.262-.453 1.71-.301.45-.688.81-1.159 1.082-.47.273-1 .464-1.59.574-.588.11-1.17.166-1.743.166-.75 0-1.509-.107-2.274-.32a4.248 4.248 0 0 1-1.943-1.137l2.01-2.23c.308.383.65.673 1.026.872.375.199.813.298 1.313.298a3.07 3.07 0 0 0 1.038-.165c.309-.11.463-.313.463-.607 0-.28-.136-.49-.408-.63a4.472 4.472 0 0 0-1.038-.353l-1.346-.309a5.564 5.564 0 0 1-1.347-.497 2.818 2.818 0 0 1-1.037-.938c-.273-.405-.409-.945-.409-1.622 0-.633.129-1.178.387-1.634a3.394 3.394 0 0 1 1.015-1.126c.42-.294.901-.511 1.446-.651a6.632 6.632 0 0 1 1.656-.21c.706 0 1.42.103 2.141.31a3.971 3.971 0 0 1 1.832 1.103l-2.03 2.009zm10.773 6.225h-.045a3.114 3.114 0 0 1-1.468 1.237c-.61.25-1.254.375-1.931.375-.5 0-.983-.07-1.446-.21a3.65 3.65 0 0 1-1.225-.629 3.038 3.038 0 0 1-.84-1.038c-.205-.412-.308-.89-.308-1.435 0-.618.114-1.14.342-1.567.228-.427.537-.78.927-1.06s.835-.496 1.336-.65a9.75 9.75 0 0 1 1.556-.343 14.866 14.866 0 0 1 1.611-.133 54.683 54.683 0 0 1 1.49-.022c0-.588-.21-1.056-.629-1.401a2.269 2.269 0 0 0-1.49-.52c-.544 0-1.04.115-1.49.343a4.07 4.07 0 0 0-1.203.938l-1.766-1.81a6.077 6.077 0 0 1 2.163-1.291 7.732 7.732 0 0 1 2.561-.431c.972 0 1.77.121 2.396.364.625.243 1.125.6 1.5 1.071.376.47.637 1.049.784 1.733.148.684.221 1.475.221 2.373v5.453h-3.046v-1.347zm-.817-3.355c-.25 0-.563.01-.938.033a4.754 4.754 0 0 0-1.082.188c-.346.103-.64.257-.883.463-.243.206-.364.493-.364.861 0 .397.169.692.507.883.339.191.692.287 1.06.287.324 0 .636-.044.938-.132.302-.089.57-.214.806-.376.235-.162.423-.368.563-.618.14-.25.21-.544.21-.883v-.706h-.817zm12.561 3.355h-.044a3.114 3.114 0 0 1-1.468 1.237c-.61.25-1.255.375-1.932.375-.5 0-.982-.07-1.446-.21a3.65 3.65 0 0 1-1.225-.629 3.038 3.038 0 0 1-.839-1.038c-.206-.412-.309-.89-.309-1.435 0-.618.114-1.14.342-1.567.228-.427.537-.78.927-1.06s.836-.496 1.336-.65a9.75 9.75 0 0 1 1.556-.343 14.866 14.866 0 0 1 1.612-.133 54.683 54.683 0 0 1 1.49-.022c0-.588-.21-1.056-.629-1.401a2.269 2.269 0 0 0-1.49-.52c-.545 0-1.041.115-1.49.343a4.07 4.07 0 0 0-1.203.938l-1.767-1.81a6.077 6.077 0 0 1 2.164-1.291 7.732 7.732 0 0 1 2.56-.431c.972 0 1.77.121 2.396.364.626.243 1.126.6 1.501 1.071.376.47.637 1.049.784 1.733.147.684.22 1.475.22 2.373v5.453h-3.046v-1.347zm-.817-3.355c-.25 0-.563.01-.938.033a4.754 4.754 0 0 0-1.082.188c-.345.103-.64.257-.883.463-.242.206-.364.493-.364.861 0 .397.17.692.508.883.338.191.692.287 1.06.287.323 0 .636-.044.938-.132.301-.089.57-.214.806-.376.235-.162.423-.368.562-.618.14-.25.21-.544.21-.883v-.706h-.817zm5.828-6.027h3.18v1.457h.044c.103-.206.25-.412.441-.618.191-.206.42-.39.684-.552.265-.162.567-.294.906-.397a3.775 3.775 0 0 1 1.103-.155c.84 0 1.516.129 2.031.386.516.258.917.615 1.204 1.071.287.456.482.993.585 1.612.103.618.154 1.287.154 2.009v5.916h-3.311v-5.254c0-.31-.011-.63-.033-.96a3.03 3.03 0 0 0-.2-.917c-.11-.28-.279-.507-.507-.684-.228-.177-.555-.265-.982-.265-.427 0-.773.077-1.038.232a1.58 1.58 0 0 0-.607.618c-.14.258-.232.548-.276.872a7.515 7.515 0 0 0-.066 1.016v5.342h-3.312V6.931z"/>
            <path fill="#72CCF0" d="M101.793 18.456c0 .691-.066 1.313-.198 1.865a3.589 3.589 0 0 1-.663 1.413 3.02 3.02 0 0 1-1.225.905c-.508.214-1.137.32-1.887.32-.25 0-.508-.01-.773-.033a3.87 3.87 0 0 1-.773-.143l.177-2.936c.265.132.552.198.861.198.28 0 .5-.073.662-.22.162-.148.28-.332.353-.552.074-.221.118-.457.133-.707.015-.25.022-.478.022-.684V6.932h3.311v11.524zM98.217 3.554c0-.53.188-.982.563-1.357a1.85 1.85 0 0 1 1.358-.563c.53 0 .982.187 1.357.563.376.375.563.827.563 1.357s-.187.983-.563 1.358a1.85 1.85 0 0 1-1.357.563 1.85 1.85 0 0 1-1.358-.563 1.85 1.85 0 0 1-.563-1.358zm5.453 8.742c0-.853.154-1.626.464-2.318a5.336 5.336 0 0 1 1.269-1.777 5.606 5.606 0 0 1 1.898-1.137 6.762 6.762 0 0 1 2.33-.397c.824 0 1.6.132 2.329.397a5.606 5.606 0 0 1 1.898 1.137c.537.493.96 1.086 1.27 1.777.309.692.463 1.465.463 2.318 0 .854-.154 1.627-.464 2.318a5.336 5.336 0 0 1-1.269 1.778 5.606 5.606 0 0 1-1.898 1.137 6.762 6.762 0 0 1-2.33.397c-.824 0-1.6-.133-2.329-.397a5.606 5.606 0 0 1-1.898-1.137 5.336 5.336 0 0 1-1.27-1.778c-.309-.691-.463-1.464-.463-2.318zm3.311 0c0 .81.232 1.465.696 1.965.463.5 1.115.75 1.953.75.84 0 1.49-.25 1.954-.75.464-.5.696-1.155.696-1.965 0-.809-.232-1.464-.696-1.964-.463-.5-1.115-.75-1.954-.75-.838 0-1.49.25-1.953.75-.464.5-.696 1.155-.696 1.964zM117.732.971h3.312V8.08h.044c.383-.515.872-.88 1.468-1.093a5.69 5.69 0 0 1 1.932-.32c.765 0 1.45.158 2.053.475.603.316 1.115.74 1.534 1.269.42.53.743 1.137.972 1.821.228.685.342 1.402.342 2.153 0 .81-.125 1.552-.376 2.23a5.119 5.119 0 0 1-1.07 1.755 4.824 4.824 0 0 1-1.667 1.147c-.648.273-1.369.409-2.164.409-.382 0-.743-.052-1.081-.155a4.67 4.67 0 0 1-.938-.397 3.925 3.925 0 0 1-1.27-1.126h-.044v1.413h-3.047V.971zm3.047 11.325c0 .81.232 1.465.695 1.965.464.5 1.115.75 1.954.75s1.49-.25 1.954-.75c.463-.5.695-1.155.695-1.965 0-.809-.232-1.464-.695-1.964-.464-.5-1.115-.75-1.954-.75s-1.49.25-1.954.75c-.463.5-.695 1.155-.695 1.964zm16.513-2.207c-.486-.604-1.126-.905-1.92-.905-.28 0-.553.066-.817.198-.265.133-.398.361-.398.685 0 .265.136.46.409.585.272.125.618.235 1.037.33l1.347.31c.478.11.927.283 1.346.519.42.235.766.555 1.038.96.272.405.408.946.408 1.623 0 .691-.15 1.262-.452 1.71-.302.45-.688.81-1.16 1.082-.47.273-1 .464-1.589.574-.588.11-1.17.166-1.744.166-.75 0-1.508-.107-2.273-.32a4.248 4.248 0 0 1-1.943-1.137l2.009-2.23c.309.383.651.673 1.026.872.376.199.813.298 1.314.298a3.07 3.07 0 0 0 1.037-.165c.31-.11.464-.313.464-.607 0-.28-.136-.49-.408-.63a4.472 4.472 0 0 0-1.038-.353l-1.347-.309a5.564 5.564 0 0 1-1.346-.497 2.818 2.818 0 0 1-1.038-.938c-.272-.405-.408-.945-.408-1.622 0-.633.129-1.178.386-1.634a3.394 3.394 0 0 1 1.016-1.126c.419-.294.901-.511 1.446-.651a6.632 6.632 0 0 1 1.655-.21c.707 0 1.42.103 2.142.31a3.971 3.971 0 0 1 1.832 1.103l-2.031 2.009z"/>
        </g>
        <g opacity=".87">
            <path fill="#94969B" fill-rule="nonzero" stroke="#94969B" stroke-width=".5" d="M26.334 34.954l-.117-.317c-.334.345-.766.518-1.295.518-.563 0-1.024-.18-1.383-.539-.36-.36-.539-.862-.539-1.509 0-.624.187-1.12.56-1.491.373-.37.855-.556 1.446-.556.262 0 .507.049.735.146.229.098.398.216.51.355v-.3c0-.078.039-.117.117-.117h.401c.078 0 .117.039.117.117v3.693c0 .078-.039.117-.117.117h-.267c-.084 0-.14-.039-.168-.117zm-.083-1.554v-.702a.948.948 0 0 0-.25-.66 1.274 1.274 0 0 0-.962-.426c-.407 0-.737.135-.99.405-.254.27-.38.636-.38 1.099 0 .451.124.812.371 1.082.248.27.576.405.982.405.424 0 .766-.17 1.028-.51.134-.16.2-.392.2-.693zm1.85 1.554v-3.693c0-.078.038-.117.116-.117h.401c.078 0 .117.039.117.117v.518c.123-.19.325-.357.606-.502.282-.145.573-.217.874-.217.4 0 .711.104.931.313.22.21.33.514.33.916v2.665c0 .078-.038.117-.116.117h-.402c-.078 0-.117-.039-.117-.117v-2.632c0-.474-.242-.71-.727-.71-.234 0-.46.07-.677.213-.217.142-.384.31-.501.505-.134.212-.2.555-.2 1.028v1.596c0 .078-.04.117-.118.117h-.4c-.079 0-.118-.039-.118-.117zM104.135 33.907l.246.304a.134.134 0 0 1 .034.083c0 .028-.014.056-.042.084-.306.295-.613.498-.92.61a3.071 3.071 0 0 1-1.052.167 2.604 2.604 0 0 1-1.918-.794c-.527-.53-.79-1.267-.79-2.215 0-.924.27-1.657.81-2.198.541-.54 1.196-.81 1.965-.81.724 0 1.345.237 1.863.71.028.028.042.053.042.075a.134.134 0 0 1-.033.084l-.201.26c-.039.055-.08.083-.125.083-.028 0-.064-.017-.109-.05a2.552 2.552 0 0 0-.71-.44 2.205 2.205 0 0 0-.77-.12c-.562 0-1.035.206-1.42.618-.384.412-.577 1.008-.577 1.788 0 .764.197 1.356.59 1.776.392.421.862.631 1.408.631.284 0 .54-.048.769-.146a2.9 2.9 0 0 0 .743-.497c.045-.034.081-.05.11-.05.028 0 .058.015.087.047zm5.07.922a2.876 2.876 0 0 1-1.361.326c-.496 0-.952-.11-1.367-.33-.415-.22-.758-.563-1.028-1.028-.27-.465-.405-1.015-.405-1.65 0-.92.277-1.651.831-2.194.555-.544 1.21-.815 1.969-.815.757 0 1.413.271 1.968.815.554.543.831 1.274.831 2.193 0 .636-.135 1.186-.405 1.651-.27.465-.614.81-1.032 1.032zm-2.824-.894c.401.412.889.618 1.463.618.573 0 1.061-.207 1.462-.622.401-.415.602-1.01.602-1.785 0-.78-.2-1.376-.602-1.788a1.964 1.964 0 0 0-1.462-.618c-.574 0-1.062.206-1.463.618-.401.412-.602 1.008-.602 1.788 0 .775.201 1.371.602 1.789zm5.059 1.02l.593-5.617c.011-.078.053-.117.125-.117h.41c.072 0 .125.04.159.117l1.763 4.68 1.763-4.68c.034-.078.087-.117.16-.117h.409c.072 0 .114.04.125.117l.593 5.616c0 .078-.042.117-.125.117h-.435c-.078 0-.12-.039-.125-.117l-.418-4.404-1.613 4.404c-.028.078-.078.117-.15.117h-.368c-.072 0-.123-.039-.15-.117l-1.613-4.404-.418 4.404c-.006.078-.048.117-.126.117h-.434c-.084 0-.125-.039-.125-.117zm11.771 0l2.098-5.6c.028-.089.092-.134.192-.134h.284c.1 0 .165.045.192.134l2.098 5.6c0 .077-.039.116-.117.116h-.434c-.073 0-.123-.039-.15-.117l-.594-1.612h-2.273l-.594 1.612c-.028.078-.078.117-.15.117h-.435c-.078 0-.117-.039-.117-.117zm1.521-2.215h1.822l-.91-2.499-.912 2.499zM119 34.954v-5.616c0-.078.039-.117.117-.117h2.181c.563 0 1.02.158 1.37.473.352.314.527.728.527 1.24 0 .497-.163.902-.489 1.217-.326.314-.748.472-1.266.472h-1.755v2.331c0 .078-.039.117-.117.117h-.451c-.078 0-.117-.039-.117-.117zm.685-2.933h1.705c.362 0 .64-.102.832-.305.192-.203.288-.464.288-.781 0-.318-.097-.583-.293-.794-.195-.212-.47-.318-.827-.318h-1.705v2.198zm9.354 2.933v-5.616c0-.078.039-.117.117-.117h.342c.078 0 .142.04.192.117l2.959 4.438v-4.438c0-.078.039-.117.117-.117h.451c.078 0 .117.04.117.117v5.616c0 .078-.039.117-.117.117h-.343c-.078 0-.142-.039-.192-.117l-2.958-4.437v4.437c0 .078-.04.117-.117.117h-.451c-.078 0-.117-.039-.117-.117zm6.09.023l.907-2.037-1.847-3.518a.208.208 0 0 1-.025-.092c0-.072.039-.109.117-.109h.46c.094 0 .164.042.208.126l1.43 2.825 1.278-2.825c.034-.084.098-.126.192-.126h.46c.056 0 .084.023.084.067a.135.135 0 0 1-.017.059l-2.507 5.607c-.034.078-.09.117-.167.117h-.494c-.055 0-.083-.022-.083-.066l.004-.028z"/>
            <path fill="#000" d="M39.12 32h2.38v2.38A2.38 2.38 0 0 1 39.12 32zm2.38 4a4 4 0 0 1 0-8v4h4a4 4 0 0 1-4 4zm0-10a6 6 0 1 0 0 12 6 6 0 0 0 0-12zM52.85 34.178c.207 0 .417-.038.627-.114.211-.076.4-.195.569-.358.169-.162.306-.37.413-.623.107-.252.16-.556.16-.91 0-.353-.053-.656-.16-.909a1.827 1.827 0 0 0-.417-.623 1.626 1.626 0 0 0-.573-.358 1.822 1.822 0 0 0-.62-.113c-.202 0-.408.038-.619.113-.21.076-.401.195-.573.358-.171.163-.31.37-.417.623a2.33 2.33 0 0 0-.16.91c0 .353.052.657.156.91.104.252.24.46.409.622.168.163.358.282.568.358.211.076.423.114.637.114zm0 1.027c-.394 0-.767-.063-1.121-.19a2.657 2.657 0 0 1-.935-.568 2.688 2.688 0 0 1-.64-.947c-.158-.379-.237-.821-.237-1.326 0-.5.082-.94.245-1.318.163-.379.379-.695.649-.947.27-.253.58-.444.935-.573.354-.13.722-.194 1.104-.194.382 0 .75.065 1.103.194.354.13.666.32.936.573.27.252.485.568.648.947.163.379.245.818.245 1.318 0 .505-.079.947-.236 1.326-.157.379-.37.695-.64.947-.27.253-.582.442-.936.569-.354.126-.727.19-1.12.19zM56.7 29.395c0-.112.056-.168.169-.168h.758c.112 0 .169.056.169.168v4.699h2.822c.112 0 .169.056.169.168v.69c0 .113-.057.169-.169.169h-3.75c-.112 0-.168-.056-.168-.168v-5.558M62.893 32.022l-1.559-2.593a.212.212 0 0 1-.033-.101c0-.068.042-.101.126-.101h.918c.068 0 .117.008.148.025.03.017.063.05.097.1l.952 1.61.96-1.61a.305.305 0 0 1 .097-.1.323.323 0 0 1 .148-.025h.918c.084 0 .127.033.127.1a.213.213 0 0 1-.034.102l-1.559 2.593 1.744 2.914a.145.145 0 0 1 .034.092c0 .062-.04.093-.118.093H64.83c-.079 0-.132-.014-.16-.042a.662.662 0 0 1-.093-.126l-1.036-1.777-1.045 1.777a.666.666 0 0 1-.093.126c-.028.028-.081.042-.16.042h-1.01c-.08 0-.119-.03-.119-.093 0-.033.011-.064.034-.092l1.744-2.914M70.653 32.148c0-.112.056-.168.168-.168h3.118c.112 0 .169.056.169.168v.127c0 .432-.062.828-.185 1.187a2.65 2.65 0 0 1-.536.926 2.417 2.417 0 0 1-.846.603 2.802 2.802 0 0 1-1.121.214 3.43 3.43 0 0 1-1.12-.185 2.766 2.766 0 0 1-.961-.564 2.762 2.762 0 0 1-.674-.948c-.169-.378-.253-.823-.253-1.334 0-.494.085-.93.257-1.31.171-.379.397-.696.678-.951.281-.256.604-.448.97-.577.364-.13.74-.194 1.128-.194.275 0 .535.033.78.097.244.065.47.152.678.261a2.822 2.822 0 0 1 .969.838.18.18 0 0 1 .042.118c0 .045-.028.095-.084.151l-.523.464c-.05.045-.098.067-.143.067-.05 0-.098-.03-.143-.093a2.507 2.507 0 0 0-.708-.652c-.253-.149-.556-.223-.91-.223-.236 0-.463.042-.683.126-.218.084-.412.21-.581.375a1.872 1.872 0 0 0-.408.623 2.28 2.28 0 0 0-.156.88c0 .32.052.605.156.854.104.25.24.46.408.632.169.171.364.3.586.387.222.088.45.13.686.13.393 0 .722-.096.986-.29.265-.193.439-.487.523-.88H70.82c-.112 0-.168-.056-.168-.168v-.69M77.394 31.45c.247 0 .44-.05.581-.152.14-.101.21-.25.21-.446 0-.197-.07-.346-.21-.447-.14-.1-.334-.151-.581-.151h-1.28v1.196h1.28zm-2.376-2.055c0-.112.056-.168.168-.168h2.149c.623 0 1.106.143 1.45.429.342.286.513.688.513 1.204 0 .247-.042.465-.126.653-.085.188-.198.35-.342.484a1.611 1.611 0 0 1-.505.32 2.48 2.48 0 0 1-.62.16l1.812 2.459a.145.145 0 0 1 .034.092c0 .062-.037.093-.11.093h-1.044c-.063 0-.107-.01-.135-.03a.436.436 0 0 1-.093-.096l-1.854-2.518h-.202v2.476c0 .112-.056.168-.168.168h-.759c-.112 0-.168-.056-.168-.168v-5.558zM82.845 34.178c.208 0 .418-.038.628-.114.21-.076.4-.195.569-.358.168-.162.306-.37.413-.623.106-.252.16-.556.16-.91 0-.353-.054-.656-.16-.909a1.833 1.833 0 0 0-.417-.623 1.622 1.622 0 0 0-.573-.358 1.82 1.82 0 0 0-.62-.113c-.202 0-.408.038-.62.113-.21.076-.4.195-.572.358-.171.163-.31.37-.417.623-.107.253-.16.556-.16.91 0 .353.052.657.156.91.103.252.24.46.408.622.169.163.359.282.569.358.21.076.423.114.636.114zm0 1.027c-.393 0-.766-.063-1.12-.19a2.66 2.66 0 0 1-.936-.568 2.689 2.689 0 0 1-.64-.947c-.157-.379-.236-.821-.236-1.326 0-.5.081-.94.245-1.318a2.78 2.78 0 0 1 .648-.947c.27-.253.582-.444.935-.573.355-.13.722-.194 1.104-.194.382 0 .75.065 1.104.194.354.13.666.32.935.573.27.252.486.568.65.947.162.379.244.818.244 1.318 0 .505-.079.947-.236 1.326a2.696 2.696 0 0 1-.64.947 2.66 2.66 0 0 1-.936.569c-.354.126-.727.19-1.12.19zM86.679 29.395c0-.112.056-.168.169-.168h.758c.112 0 .168.056.168.168v3.225c0 .292.034.538.102.737.067.2.16.36.278.48.118.12.255.208.412.26.158.054.324.08.498.08s.34-.026.497-.08c.157-.052.295-.14.413-.26.117-.12.21-.28.278-.48.067-.2.1-.445.1-.737v-3.225c0-.112.057-.168.17-.168h.758c.112 0 .168.056.168.168v3.14c0 .905-.209 1.575-.628 2.013-.418.438-1.004.657-1.756.657-.753 0-1.339-.219-1.757-.657-.419-.438-.628-1.108-.628-2.012v-3.141M94.886 31.854c.646 0 .969-.267.969-.8 0-.534-.323-.8-.97-.8h-1.22v1.6h1.22zm-2.317-2.46c0-.111.056-.167.168-.167h2.267c.331 0 .619.047.863.143.245.095.447.227.607.395.16.169.28.365.358.59.079.224.118.466.118.724 0 .247-.04.48-.118.699-.078.219-.195.41-.35.573a1.657 1.657 0 0 1-.576.387c-.23.095-.5.143-.81.143h-1.432v2.072c0 .112-.056.168-.169.168h-.758c-.112 0-.168-.056-.168-.168v-5.558z"/>
        </g>
    </g>
</svg>
